<?xml version="1.0" standalone="no"?>
<!DOCTYPE svg PUBLIC "-//W3C//DTD SVG 20010904//EN"
 "http://www.w3.org/TR/2001/REC-SVG-20010904/DTD/svg10.dtd">
<svg version="1.0" xmlns="http://www.w3.org/2000/svg"
 width="300.000000pt" height="153.000000pt" viewBox="0 0 300.000000 153.000000"
 preserveAspectRatio="xMidYMid meet">
<metadata>
Created by potrace 1.10, written by Peter Selinger 2001-2011
</metadata>
<g transform="translate(0.000000,153.000000) scale(0.100000,-0.100000)"
fill="#000000" stroke="none">
<path d="M1464 898 c-16 -40 -30 -76 -32 -80 -2 -5 10 -8 27 -8 l31 0 0 -378
c0 -264 -3 -381 -11 -389 -14 -14 -3 -33 19 -33 16 0 17 22 14 267 -1 148 -3
328 -5 401 l-2 132 28 0 c15 0 27 2 27 4 0 8 -57 146 -62 151 -3 3 -18 -27
-34 -67z"/>
</g>
</svg>
